<svg xmlns="http://www.w3.org/2000/svg" version="1.1" xmlns:xlink="http://www.w3.org/1999/xlink"
    xmlns:svgjs="http://svgjs.dev/svgjs" width="1440" height="560" preserveAspectRatio="none" viewBox="0 0 1440 560">
    <g mask="url(&quot;#SvgjsMask1256&quot;)" fill="none">
        <rect width="1440" height="560" x="0" y="0" fill="#ffbb00"></rect>
        <path
            d="M36.64 117.4L79.94 142.4L79.94 192.4L36.64 217.4L-6.66 192.4L-6.66 142.4zM123.25 117.4L166.55 142.4L166.55 192.4L123.25 217.4L79.94 192.4L79.94 142.4zM253.15 42.4L296.45 67.4L296.45 117.4L253.15 142.4L209.85 117.4L209.85 67.4zM296.45 267.4L339.76 292.4L339.76 342.4L296.45 367.4L253.15 342.4L253.15 292.4zM339.76 492.4L383.06 517.4L383.06 567.4L339.76 592.4L296.45 567.4L296.45 517.4zM383.06 117.4L426.36 142.4L426.36 192.4L383.06 217.4L339.76 192.4L339.76 142.4zM383.06 267.4L426.36 292.4L426.36 342.4L383.06 367.4L339.76 342.4L339.76 292.4zM383.06 417.4L426.36 442.4L426.36 492.4L383.06 517.4L339.76 492.4L339.76 442.4zM426.36 492.4L469.67 517.4L469.67 567.4L426.36 592.4L383.06 567.4L383.06 517.4zM512.97 42.4L556.27 67.4L556.27 117.4L512.97 142.4L469.67 117.4L469.67 67.4zM512.97 192.4L556.27 217.4L556.27 267.4L512.97 292.4L469.67 267.4L469.67 217.4zM512.97 342.4L556.27 367.4L556.27 417.4L512.97 442.4L469.67 417.4L469.67 367.4zM469.67 417.4L512.97 442.4L512.97 492.4L469.67 517.4L426.36 492.4L426.36 442.4zM599.57 342.4L642.88 367.4L642.88 417.4L599.57 442.4L556.27 417.4L556.27 367.4zM599.57 492.4L642.88 517.4L642.88 567.4L599.57 592.4L556.27 567.4L556.27 517.4zM642.88 -32.6L686.18 -7.6L686.18 42.4L642.88 67.4L599.57 42.4L599.57 -7.6zM686.18 42.4L729.48 67.4L729.48 117.4L686.18 142.4L642.88 117.4L642.88 67.4zM642.88 117.4L686.18 142.4L686.18 192.4L642.88 217.4L599.57 192.4L599.57 142.4zM729.48 417.4L772.78 442.4L772.78 492.4L729.48 517.4L686.18 492.4L686.18 442.4zM772.78 492.4L816.09 517.4L816.09 567.4L772.78 592.4L729.48 567.4L729.48 517.4zM989.3 -32.6L1032.6 -7.6L1032.6 42.4L989.3 67.4L945.99 42.4L945.99 -7.6zM1032.6 192.4L1075.9 217.4L1075.9 267.4L1032.6 292.4L989.3 267.4L989.3 217.4zM1075.9 417.4L1119.2 442.4L1119.2 492.4L1075.9 517.4L1032.6 492.4L1032.6 442.4zM1162.51 -32.6L1205.81 -7.6L1205.81 42.4L1162.51 67.4L1119.2 42.4L1119.2 -7.6zM1162.51 267.4L1205.81 292.4L1205.81 342.4L1162.51 367.4L1119.2 342.4L1119.2 292.4zM1205.81 342.4L1249.11 367.4L1249.11 417.4L1205.81 442.4L1162.51 417.4L1162.51 367.4zM1335.72 -32.6L1379.02 -7.6L1379.02 42.4L1335.72 67.4L1292.41 42.4L1292.41 -7.6zM1379.02 42.4L1422.32 67.4L1422.32 117.4L1379.02 142.4L1335.72 117.4L1335.72 67.4zM1379.02 492.4L1422.32 517.4L1422.32 567.4L1379.02 592.4L1335.72 567.4L1335.72 517.4zM1465.62 42.4L1508.93 67.4L1508.93 117.4L1465.62 142.4L1422.32 117.4L1422.32 67.4zM1422.32 117.4L1465.62 142.4L1465.62 192.4L1422.32 217.4L1379.02 192.4L1379.02 142.4zM1422.32 417.4L1465.62 442.4L1465.62 492.4L1422.32 517.4L1379.02 492.4L1379.02 442.4z"
            stroke="#c5834d" stroke-width="4"></path>
    </g>
    <defs>
        <mask id="SvgjsMask1256">
            <rect width="1440" height="560" fill="#ffffff"></rect>
        </mask>
    </defs>
</svg>